HIERARCHY
ROOT root
{
	OFFSET	0	13.1	24.9
	CHANNELS 6  Xposition Yposition Zposition Xrotation Yrotation Zrotation
	JOINT spine_1
	{
		OFFSET	0	9.99999	0
		CHANNELS 3  Xrotation Yrotation Zrotation
		JOINT spine_2
		{
			OFFSET	0	112	-10
			CHANNELS 3  Xrotation Yrotation Zrotation
			JOINT spine_3
			{
				OFFSET	0	206.5	19.3
				CHANNELS 3  Xrotation Yrotation Zrotation
				JOINT spine_4
				{
					OFFSET	0	110.4	14.6
					CHANNELS 3  Xrotation Yrotation Zrotation
					JOINT neck_1
					{
						OFFSET	0	71.8	-50.3
						CHANNELS 3  Xrotation Yrotation Zrotation
						JOINT neck_2
						{
							OFFSET	0	86.2	-25.8
							CHANNELS 3  Xrotation Yrotation Zrotation
							JOINT head_ee
							{
								OFFSET	0	179.8	-8.7
								CHANNELS 3  Xrotation Yrotation Zrotation
								End Site
								{
									OFFSET	1	0	0
								}
							}
						}
					}
					JOINT left_clavicle
					{
						OFFSET	-43.2	22.4	-70.8
						CHANNELS 3  Xrotation Yrotation Zrotation
						JOINT left_shoulder
						{
							OFFSET	-93.9	-5.79999	48.7
							CHANNELS 3  Xrotation Yrotation Zrotation
							JOINT left_elbow
							{
								OFFSET	-291.4	-30.8	15.2
								CHANNELS 3  Xrotation Yrotation Zrotation
								JOINT left_lowarm_twist
								{
									OFFSET	-110.7	-3.89999	13.6
									CHANNELS 3  Xrotation Yrotation Zrotation
									JOINT left_hand
									{
										OFFSET	-110.7	-3.89999	13.6
										CHANNELS 3  Xrotation Yrotation Zrotation
										JOINT left_ee
										{
											OFFSET	-80.8	-5.10001	12.1
											CHANNELS 3  Xrotation Yrotation Zrotation
											End Site
											{
												OFFSET	1	0	0
											}
										}
									}
								}
							}
						}
					}
					JOINT right_clavicle
					{
						OFFSET	43.2	22.4	-70.8
						CHANNELS 3  Xrotation Yrotation Zrotation
						JOINT right_shoulder
						{
							OFFSET	93.9	-5.79999	48.7
							CHANNELS 3  Xrotation Yrotation Zrotation
							JOINT right_elbow
							{
								OFFSET	291.4	-30.8	15.2
								CHANNELS 3  Xrotation Yrotation Zrotation
								JOINT right_lowarm_twist
								{
									OFFSET	110.7	-3.89999	13.6
									CHANNELS 3  Xrotation Yrotation Zrotation
									JOINT right_hand
									{
										OFFSET	110.7	-3.89999	13.6
										CHANNELS 3  Xrotation Yrotation Zrotation
										JOINT right_ee
										{
											OFFSET	80.8	-5.10001	12.1
											CHANNELS 3  Xrotation Yrotation Zrotation
											End Site
											{
												OFFSET	1	0	0
											}
										}
									}
								}
							}
						}
					}
				}
			}
		}
	}
	JOINT left_hip
	{
		OFFSET	-82.8	-127.5	0.300001
		CHANNELS 3  Xrotation Yrotation Zrotation
		JOINT left_knee
		{
			OFFSET	-28.2	-396.7	2.2
			CHANNELS 3  Xrotation Yrotation Zrotation
			JOINT left_ankle
			{
				OFFSET	-11.7	-411.3	35.4
				CHANNELS 3  Xrotation Yrotation Zrotation
				JOINT left_toes
				{
					OFFSET	0	-60	-88.6
					CHANNELS 3  Xrotation Yrotation Zrotation
					JOINT left_foot_ee
					{
						OFFSET	-22.5	-16.5	-42.2
						CHANNELS 3  Xrotation Yrotation Zrotation
						End Site
						{
							OFFSET	1	0	0
						}
					}
				}
			}
		}
	}
	JOINT right_hip
	{
		OFFSET	82.8	-127.5	0.300001
		CHANNELS 3  Xrotation Yrotation Zrotation
		JOINT right_knee
		{
			OFFSET	28.2	-396.7	2.2
			CHANNELS 3  Xrotation Yrotation Zrotation
			JOINT right_ankle
			{
				OFFSET	11.7	-411.3	35.4
				CHANNELS 3  Xrotation Yrotation Zrotation
				JOINT right_toes
				{
					OFFSET	0	-60	-88.6
					CHANNELS 3  Xrotation Yrotation Zrotation
					JOINT right_foot_ee
					{
						OFFSET	22.5	-16.5	-42.2
						CHANNELS 3  Xrotation Yrotation Zrotation
						End Site
						{
							OFFSET	1	0	0
						}
					}
				}
			}
		}
	}
}
MOTION
Frames: 12
Frame Time: 0.02
2804.47 718.138 -902.369 -26.8245 54.2883 15.8812 4.32462 0.471342 2.68428 4.32858 0.299644 2.7088 4.34008 -0.0703432 2.72441 4.3299 0.360649 2.70136 -7.93868 11.9461 -4.45632 -7.92268 25.4305 -1.80032 -0.0 0.0 -0.0 5.86582 6.90403 11.3994 -11.1976 -29.7059 39.7782 1.99103 -44.5998 0.816648 4.08466 0.125902 -0.506437 0.611799 -10.4249 -0.300645 -0.0 0.0 -0.0 8.69963 1.93141 -17.041 -32.8081 10.4189 -65.0341 0.583507 16.1222 -0.082642 20.0373 -0.265556 2.53279 -0.328241 -9.92095 -2.00433 0.0 0.0 0.0 8.67052 -23.2248 18.3511 -13.5441 0.316678 2.04957 39.3546 24.8033 -5.09921 3.03801 -0.0 -0.0 -0.0 0.0 -0.0 45.7595 -16.5728 2.60406 -1.82935 -0.070988 -0.271754 33.437 -9.1868 4.25176 0.400709 -0.0 -0.0 0.0 0.0 0.0 
2786.76 713.965 -911.437 -26.8846 54.333 16.1263 4.36726 0.447875 2.73872 4.37139 0.272764 2.76164 4.38171 -0.102157 2.77319 4.37113 0.336929 2.75455 -5.98865 10.7346 -7.03767 -5.71083 24.9932 -5.14289 -0.0 0.0 -0.0 5.97904 8.12089 11.5949 -12.3018 -29.086 39.9284 2.00452 -44.7931 0.826131 3.52743 0.11086 -0.436846 0.826763 -11.6213 0.635434 -0.0 0.0 -0.0 9.00544 1.63386 -17.6637 -32.3865 11.0626 -64.5759 0.580839 16.0523 -0.0819026 20.6141 -0.260003 2.60626 -0.534741 -8.91675 -0.25451 0.0 0.0 0.0 8.1471 -22.22 17.9913 -15.6699 0.32207 2.37567 39.4427 23.3182 -5.06273 3.54899 -0.0 -0.0 -0.0 0.0 -0.0 45.9099 -16.359 2.42145 -4.28076 -0.15243 -0.639131 34.7513 -8.62326 4.38026 1.37098 -0.0 -0.0 0.0 0.0 0.0 
2763.02 714.287 -924.492 -27.8125 55.3393 17.1068 4.40849 0.526027 2.64497 4.41231 0.356716 2.67306 4.42629 -0.00482477 2.69673 4.41639 0.420981 2.6637 -5.59316 10.5269 -7.19701 -5.27886 24.727 -5.44164 -0.0 0.0 -0.0 5.59296 9.25374 10.8908 -13.6268 -28.8959 41.5897 2.10454 -46.1871 0.897465 3.97447 0.122981 -0.492665 1.22685 -13.7923 2.38752 -0.0 0.0 -0.0 9.24004 1.95517 -18.1561 -31.7349 10.6471 -64.3822 0.602764 16.6253 -0.0880707 21.2284 -0.253277 2.68443 -0.583571 -9.47249 -0.1772 0.0 0.0 0.0 7.65541 -21.2311 17.6319 -17.039 0.319138 2.5857 39.2636 24.1708 -5.07075 3.70208 -0.0 -0.0 -0.0 0.0 -0.0 45.5562 -16.2134 3.12791 -6.62855 -0.215617 -0.993872 35.1168 -7.81359 4.41314 2.21976 -0.0 -0.0 0.0 0.0 0.0 
2740.29 716.859 -937.484 -28.4851 55.5047 17.7643 4.4698 0.573626 2.74763 4.47391 0.397695 2.77853 4.49025 0.0248251 2.80671 4.47956 0.467609 2.76763 -5.244 10.1238 -8.52143 -4.82328 24.9663 -6.97353 -0.0 0.0 -0.0 5.47795 9.68707 10.6838 -16.0036 -27.7255 42.3088 2.05612 -45.5209 0.862721 3.03997 0.0971456 -0.37609 1.50469 -14.5102 3.94034 -0.0 0.0 -0.0 9.43421 0.913333 -18.5259 -30.987 10.8622 -63.5702 0.620855 17.0956 -0.0933178 21.7661 -0.2467 2.7528 -0.830216 -9.7591 1.28194 0.0 0.0 0.0 8.04906 -20.326 17.4384 -18.7566 0.308363 2.84901 39.4549 25.1045 -5.11861 4.0915 -0.0 -0.0 -0.0 0.0 -0.0 44.5181 -16.0931 3.34437 -7.27431 -0.230441 -1.09186 36.3363 -7.32259 4.52884 2.78341 -0.0 -0.0 0.0 0.0 0.0 
2710.4 723.664 -952.11 -26.6558 56.069 16.4464 4.3656 0.533278 2.63909 4.3694 0.364327 2.66765 4.38376 0.00145091 2.69239 4.37389 0.426493 2.65842 -4.30057 9.25189 -9.08422 -3.79157 23.8145 -7.9365 -0.0 0.0 -0.0 5.18016 9.23767 10.1579 -19.0999 -26.8604 44.3372 1.94894 -43.9881 0.787253 2.56742 0.083358 -0.317303 1.67495 -14.715 4.99514 -0.0 0.0 -0.0 9.63653 1.92637 -18.9785 -31.059 11.1572 -63.9482 0.637041 17.5143 -0.0981323 22.0178 -0.243402 2.78478 -0.878496 -8.68739 2.06063 0.0 0.0 0.0 7.066 -20.0774 17.2023 -20.4956 0.289418 3.11515 38.4187 25.7606 -5.03775 4.05674 -0.0 -0.0 -0.0 0.0 -0.0 43.6884 -15.0009 5.08596 -13.9488 -0.318637 -2.11163 37.8647 -7.09585 4.67056 3.63695 -0.0 -0.0 0.0 0.0 0.0 
2688.47 727.566 -963.702 -26.7051 57.0112 15.8095 4.24812 0.627182 2.75978 4.25224 0.450369 2.79406 4.27152 0.0642216 2.82937 4.26071 0.510086 2.78378 -4.09505 8.58709 -10.2377 -3.49852 23.4835 -9.30579 -0.0 0.0 -0.0 5.25347 10.4 10.2856 -20.2017 -25.5179 45.2848 1.93509 -43.784 0.777647 2.1795 0.0716774 -0.26913 1.79499 -15.6865 5.3668 -0.0 0.0 -0.0 10.037 1.54694 -19.8004 -30.0919 11.0698 -62.8759 0.627092 17.2572 -0.0951598 21.7371 -0.247071 2.74911 -1.05488 -9.26335 2.9435 0.0 0.0 0.0 7.69544 -19.2733 17.2622 -20.9858 0.282618 3.19006 41.0032 25.577 -5.28285 4.68448 -0.0 -0.0 -0.0 0.0 -0.0 43.0134 -14.9458 6.14011 -15.8303 -0.321987 -2.40027 38.6949 -6.75742 4.74493 4.34885 -0.0 -0.0 0.0 0.0 0.0 
2666.31 730.198 -976.367 -26.6006 57.6575 15.2861 4.12224 0.744535 3.03217 4.12719 0.550175 3.07335 4.15366 0.118628 3.11991 4.14059 0.609637 3.06212 -3.75721 8.52263 -10.4639 -3.11723 23.5552 -9.6394 -0.0 0.0 -0.0 4.91488 10.2626 9.69419 -22.5714 -24.9797 46.0282 1.87788 -42.9261 0.738375 1.82671 0.0607708 -0.225386 1.92682 -15.8111 6.19714 -0.0 0.0 -0.0 10.2941 1.68821 -20.3449 -29.0845 11.4126 -63.0047 0.650772 17.868 -0.102305 21.8712 -0.24534 2.76615 -1.06639 -9.23433 3.03052 0.0 0.0 0.0 7.89732 -19.3668 17.0096 -21.6639 0.272157 3.29358 41.0585 25.6992 -5.29232 4.80435 -0.0 -0.0 -0.0 0.0 -0.0 42.3309 -14.6927 7.16544 -18.8306 -0.307721 -2.86035 39.3302 -6.88122 4.80179 4.76697 -0.0 -0.0 0.0 0.0 0.0 
2645.91 731.73 -985.42 -26.2453 58.3442 14.9792 4.00932 0.647325 3.16605 4.01478 0.444655 3.20077 4.03644 -0.010335 3.23146 4.02221 0.49988 3.19262 -5.65638 8.07374 -11.5407 -5.07901 23.4161 -10.3726 -0.0 0.0 -0.0 4.6877 10.4405 9.29956 -24.2726 -24.1919 47.3676 1.7238 -40.4911 0.635831 1.80386 0.060055 -0.222555 1.8389 -15.4073 5.78821 -0.0 0.0 -0.0 10.0833 2.34711 -19.9276 -26.7205 12.5163 -63.3072 0.679169 18.5951 -0.111189 21.9535 -0.244258 2.77661 -0.99307 -8.98569 2.66836 0.0 0.0 0.0 10.2447 -18.7913 17.3296 -26.1182 0.17307 3.96977 40.6629 25.2962 -5.24105 4.78164 -0.0 -0.0 -0.0 0.0 -0.0 40.9957 -14.4575 8.04445 -20.7254 -0.28631 -3.15027 39.6741 -6.52409 4.83118 5.08105 -0.0 -0.0 0.0 0.0 0.0 
2618.79 735.742 -995.301 -25.3745 59.4412 13.9153 4.04302 0.564613 3.2346 4.04877 0.357755 3.26393 4.06574 -0.103729 3.28182 4.05095 0.415595 3.25708 -6.0461 7.36644 -11.9771 -5.47532 22.403 -10.8553 -0.0 0.0 -0.0 4.64009 11.5521 9.22628 -25.1803 -23.7301 49.3909 1.53457 -37.2388 0.517046 1.51489 0.050907 -0.18678 1.68506 -13.5332 5.58969 -0.0 0.0 -0.0 9.7122 1.74584 -19.1301 -25.4292 13.6095 -63.6718 0.693131 18.9503 -0.115683 22.0051 -0.243572 2.78317 -0.87603 -8.89401 1.95424 0.0 0.0 0.0 11.601 -16.06 17.5763 -32.4349 -0.0568733 4.91144 37.0233 25.5734 -4.89036 3.98937 -0.0 -0.0 -0.0 0.0 -0.0 38.9976 -13.4143 9.12883 -22.7266 -0.253298 -3.45557 40.115 -7.04627 4.87097 5.38173 -0.0 -0.0 0.0 0.0 0.0 
2598.74 739.011 -1003.54 -22.5773 60.0289 10.9852 4.02196 0.606485 3.43791 4.02845 0.386628 3.46948 4.04805 -0.105037 3.48935 4.03134 0.447023 3.46223 -6.20518 6.70542 -12.8185 -5.58328 21.7887 -11.8109 -0.0 0.0 -0.0 4.25455 11.0058 8.55784 -26.9385 -22.9413 51.0657 1.37188 -34.1979 0.422037 1.64387 0.0550123 -0.202742 1.65753 -13.8018 5.28449 -0.0 0.0 -0.0 9.97225 4.21527 -19.7466 -23.4926 13.8972 -64.3669 0.707342 19.3103 -0.12034 21.9157 -0.244757 2.77181 -1.0089 -8.88027 2.81711 0.0 0.0 0.0 12.941 -17.5619 17.7556 -32.625 -0.0653968 4.93936 39.5591 25.1397 -5.12988 4.49379 -0.0 -0.0 -0.0 0.0 -0.0 36.1238 -12.0705 9.58394 -23.5434 -0.236763 -3.57981 39.8032 -7.28767 4.8446 5.30505 -0.0 -0.0 0.0 0.0 0.0 
2573.45 741.899 -1012.92 -20.7801 60.5415 8.77975 3.91607 0.635036 3.69445 3.92357 0.398829 3.72731 3.94532 -0.135951 3.7461 3.92603 0.456963 3.72064 -8.07745 6.8294 -12.8478 -7.57641 21.7988 -11.3797 -0.0 0.0 -0.0 4.13458 11.3793 8.3589 -29.3699 -22.6713 51.344 1.26999 -32.1732 0.366254 1.30391 0.0441136 -0.160688 1.65162 -13.102 5.55487 -0.0 0.0 -0.0 9.86846 4.79054 -19.5374 -21.7376 14.8694 -64.6162 0.76283 20.7007 -0.139324 22.2192 -0.240661 2.81037 -0.702812 -8.70431 0.919836 0.0 0.0 0.0 13.7412 -15.9367 17.2878 -34.9336 -0.176296 5.27617 39.1708 24.7709 -5.08028 4.2817 -0.0 -0.0 -0.0 0.0 -0.0 34.5146 -12.4456 11.1297 -25.6234 -0.186669 -3.89507 39.8403 -6.88657 4.84661 5.40468 -0.0 -0.0 0.0 0.0 0.0 
2550.56 743.804 -1023.44 -22.254 61.4408 9.97666 3.92415 0.680298 3.83385 3.93222 0.435149 3.8693 3.95708 -0.119363 3.89183 3.93629 0.496309 3.86194 -7.65588 6.88902 -12.7614 -7.13401 21.9039 -11.3764 -0.0 0.0 -0.0 3.56024 11.5963 7.38529 -30.9096 -22.1432 52.6882 1.1953 -30.6293 0.327335 1.3025 0.0440681 -0.160514 1.69191 -13.2701 5.75274 -0.0 0.0 -0.0 10.0313 5.14294 -19.8909 -21.002 14.937 -64.3539 0.7452 20.2616 -0.133156 22.0878 -0.242459 2.79368 -0.918805 -8.71246 2.30978 0.0 0.0 0.0 14.8257 -16.1393 17.4237 -35.9225 -0.227941 5.41904 38.7038 24.779 -5.03473 4.12837 -0.0 -0.0 -0.0 0.0 -0.0 32.9676 -12.527 11.6877 -24.9295 -0.204652 -3.7901 39.6275 -6.70156 4.82751 5.33392 -0.0 -0.0 0.0 0.0 0.0 
